<?xml version="1.0" encoding="UTF-8" standalone="no"?>
<!-- Created with Inkscape (http://www.inkscape.org/) -->

<svg
   xmlns:dc="http://purl.org/dc/elements/1.1/"
   xmlns:cc="http://creativecommons.org/ns#"
   xmlns:rdf="http://www.w3.org/1999/02/22-rdf-syntax-ns#"
   xmlns:svg="http://www.w3.org/2000/svg"
   xmlns="http://www.w3.org/2000/svg"
   xmlns:sodipodi="http://sodipodi.sourceforge.net/DTD/sodipodi-0.dtd"
   xmlns:inkscape="http://www.inkscape.org/namespaces/inkscape"
   width="210mm"
   height="297mm"
   viewBox="0 0 744.09448819 1052.3622047"
   id="svg2"
   version="1.1"
   inkscape:version="0.91 r13725"
   sodipodi:docname="cookies.svg"
   inkscape:export-filename="/home/mvecera/cookies.png"
   inkscape:export-xdpi="299.94672"
   inkscape:export-ydpi="299.94672">
  <defs
     id="defs4" />
  <sodipodi:namedview
     id="base"
     pagecolor="#ffffff"
     bordercolor="#666666"
     borderopacity="1.0"
     inkscape:pageopacity="0.0"
     inkscape:pageshadow="2"
     inkscape:zoom="0.98994949"
     inkscape:cx="173.05673"
     inkscape:cy="676.02319"
     inkscape:document-units="px"
     inkscape:current-layer="layer1"
     showgrid="false"
     inkscape:window-width="1920"
     inkscape:window-height="1033"
     inkscape:window-x="1920"
     inkscape:window-y="0"
     inkscape:window-maximized="1" />
  <metadata
     id="metadata7">
    <rdf:RDF>
      <cc:Work
         rdf:about="">
        <dc:format>image/svg+xml</dc:format>
        <dc:type
           rdf:resource="http://purl.org/dc/dcmitype/StillImage" />
        <dc:title></dc:title>
      </cc:Work>
    </rdf:RDF>
  </metadata>
  <g
     inkscape:label="Vrstva 1"
     inkscape:groupmode="layer"
     id="layer1">
    <g
       id="g4161">
      <circle
         r="69.700523"
         cy="458.39252"
         cx="210.11172"
         id="path4136"
         style="fill:none;fill-opacity:1;stroke:#000000;stroke-width:14;stroke-miterlimit:4;stroke-dasharray:none;stroke-dashoffset:0;stroke-opacity:1" />
      <g
         id="g4157">
        <circle
           style="fill:#000000;fill-opacity:1;stroke:#ffffff;stroke-width:15.38285923;stroke-miterlimit:4;stroke-dasharray:none;stroke-dashoffset:0;stroke-opacity:1"
           id="path4136-0"
           cx="272.23611"
           cy="393.23767"
           r="76.585236" />
        <path
           sodipodi:type="star"
           style="fill:#ffffff;fill-opacity:1;stroke:#ffffff;stroke-width:8.22844315;stroke-miterlimit:4;stroke-dasharray:none;stroke-dashoffset:0;stroke-opacity:1"
           id="path4155"
           sodipodi:sides="13"
           sodipodi:cx="342.14669"
           sodipodi:cy="316.61559"
           sodipodi:r1="81.44912"
           sodipodi:r2="73.304214"
           sodipodi:arg1="0.79570708"
           sodipodi:arg2="1.0373681"
           inkscape:flatsided="false"
           inkscape:rounded="0.48"
           inkscape:randomized="0"
           d="m 399.14315,374.79948 c -6.97115,6.82888 -11.31928,-0.026 -19.72212,4.9361 -8.40284,4.96214 -4.49969,12.07984 -13.84588,14.88686 -9.34618,2.80702 -10.01062,-5.28339 -19.75699,-4.79463 -9.74636,0.48877 -9.59806,8.60506 -19.17818,6.74716 -9.58012,-1.8579 -6.40865,-9.33038 -15.26577,-13.42696 -8.85712,-4.09658 -12.49763,3.15896 -20.117,-2.93824 -7.61937,-6.09719 -1.33854,-11.23988 -7.27735,-18.98334 -5.93881,-7.74345 -12.53414,-3.01082 -16.44725,-11.95051 -3.91311,-8.93969 4.03821,-10.57448 2.37822,-20.19087 -1.65999,-9.61638 -9.69923,-8.49085 -9.00964,-18.22507 0.6896,-9.73422 8.48987,-7.48658 11.48898,-16.77291 2.99911,-9.28633 -4.64234,-12.02574 0.49198,-20.32449 5.13432,-8.29875 10.99659,-2.68359 17.96774,-9.51248 6.97115,-6.82888 1.47805,-12.80566 9.88088,-17.7678 8.40284,-4.96214 10.98413,2.73416 20.33032,-0.0729 9.34618,-2.80702 7.25984,-10.65197 17.0062,-11.14074 9.74637,-0.48876 8.45533,7.52556 18.03546,9.38346 9.58012,1.8579 11.37848,-6.05804 20.2356,-1.96145 8.85712,4.09658 3.98952,10.59294 11.60889,16.69013 7.61937,6.09719 12.89046,-0.0763 18.82927,7.66717 5.93881,7.74345 -1.39023,11.23361 2.52288,20.1733 3.91311,8.93969 11.44938,5.92295 13.10938,15.53934 1.65999,9.61639 -6.45152,9.30079 -7.14111,19.03501 -0.6896,9.73422 7.38539,10.56531 4.38629,19.85163 -2.99911,9.28633 -10.03483,5.23728 -15.16915,13.53603 -5.13432,8.29875 1.6295,12.78728 -5.34165,19.61616 z" />
      </g>
    </g>
    <circle
       style="fill:#000000;fill-opacity:1;stroke:none;stroke-width:14;stroke-miterlimit:4;stroke-dasharray:none;stroke-dashoffset:0;stroke-opacity:1"
       id="path4167"
       cx="221.72849"
       cy="488.19199"
       r="9.5964489" />
    <circle
       r="7.0710673"
       cy="470.51431"
       cx="170.71579"
       id="circle4169"
       style="fill:#000000;fill-opacity:1;stroke:none;stroke-width:14;stroke-miterlimit:4;stroke-dasharray:none;stroke-dashoffset:0;stroke-opacity:1" />
    <circle
       style="fill:#000000;fill-opacity:1;stroke:none;stroke-width:14;stroke-miterlimit:4;stroke-dasharray:none;stroke-dashoffset:0;stroke-opacity:1"
       id="circle4171"
       cx="209.10159"
       cy="457.38235"
       r="7.0710673" />
    <circle
       r="4.0406098"
       cy="499.80878"
       cx="183.84778"
       id="circle4173"
       style="fill:#000000;fill-opacity:1;stroke:none;stroke-width:14;stroke-miterlimit:4;stroke-dasharray:none;stroke-dashoffset:0;stroke-opacity:1" />
    <circle
       style="fill:#000000;fill-opacity:1;stroke:none;stroke-width:14;stroke-miterlimit:4;stroke-dasharray:none;stroke-dashoffset:0;stroke-opacity:1"
       id="circle4175"
       cx="249.50769"
       cy="486.67679"
       r="4.0406098" />
    <circle
       r="9.5964489"
       cy="434.6539"
       cx="177.28177"
       id="circle4177"
       style="fill:#000000;fill-opacity:1;stroke:none;stroke-width:14;stroke-miterlimit:4;stroke-dasharray:none;stroke-dashoffset:0;stroke-opacity:1" />
    <circle
       r="9.5964489"
       cy="426.57266"
       cx="291.42902"
       id="circle4179"
       style="fill:#ffffff;fill-opacity:1;stroke:none;stroke-width:14;stroke-miterlimit:4;stroke-dasharray:none;stroke-dashoffset:0;stroke-opacity:1" />
    <circle
       r="7.0710673"
       cy="389.70215"
       cx="227.28433"
       id="circle4181"
       style="fill:#ffffff;fill-opacity:1;stroke:none;stroke-width:14;stroke-miterlimit:4;stroke-dasharray:none;stroke-dashoffset:0;stroke-opacity:1" />
    <circle
       style="fill:#ffffff;fill-opacity:1;stroke:none;stroke-width:14;stroke-miterlimit:4;stroke-dasharray:none;stroke-dashoffset:0;stroke-opacity:1"
       id="circle4183"
       cx="263.64981"
       cy="441.21994"
       r="7.0710673" />
    <circle
       r="4.0406098"
       cy="395.76306"
       cx="258.59906"
       id="circle4185"
       style="fill:#ffffff;fill-opacity:1;stroke:none;stroke-width:14;stroke-miterlimit:4;stroke-dasharray:none;stroke-dashoffset:0;stroke-opacity:1" />
  </g>
</svg>
